<?xml version="1.0" encoding="UTF-8" standalone="no"?>
<svg
   xmlns:dc="http://purl.org/dc/elements/1.1/"
   xmlns:cc="http://creativecommons.org/ns#"
   xmlns:rdf="http://www.w3.org/1999/02/22-rdf-syntax-ns#"
   xmlns:svg="http://www.w3.org/2000/svg"
   xmlns="http://www.w3.org/2000/svg"
   width="167.18234mm"
   height="39.979599mm"
   viewBox="0 0 167.18234 39.979599"
   version="1.1"
   id="svg8">
  <defs
     id="defs2">
    <rect
       x="199.61369"
       y="116.15129"
       width="238.17361"
       height="136.78728"
       id="rect865" />
    <rect
       x="23.26766"
       y="98.10984"
       width="188.15451"
       height="107.30049"
       id="rect855" />
    <rect
       x="193.49968"
       y="155.77275"
       width="267.30579"
       height="110.34657"
       id="rect849" />
  </defs>
  <metadata
     id="metadata5">
    <rdf:RDF>
      <cc:Work
         rdf:about="">
        <dc:format>image/svg+xml</dc:format>
        <dc:type
           rdf:resource="http://purl.org/dc/dcmitype/StillImage" />
        <dc:title></dc:title>
      </cc:Work>
    </rdf:RDF>
  </metadata>
  <g
     id="layer1"
     transform="translate(-20.919885,-30.675901)">
    <g
       aria-label="reurb+"
       id="text835"
       style="font-style:normal;font-variant:normal;font-weight:normal;font-stretch:normal;font-size:50.8px;line-height:1.25;font-family:Comfortaa;-inkscape-font-specification:Comfortaa;stroke-width:0.264583">
      <path
         d="m 22.545485,53.231101 q 0.1524,-3.1496 1.6256,-5.6388 1.524,-2.4892 3.9116,-3.9116 2.4384,-1.4224 5.3848,-1.4224 2.3368,0 3.6068,0.6604 1.27,0.6604 0.9652,1.9304 -0.2032,0.762 -0.7112,1.016 -0.4572,0.254 -1.1684,0.2032 -0.6604,-0.0508 -1.524,-0.1016 -2.8448,-0.254 -5.08,0.6096 -2.1844,0.8128 -3.5052,2.54 -1.27,1.7272 -1.27,4.1148 z m 0.3048,17.119599 q -0.9144,0 -1.4224,-0.508 -0.508,-0.508 -0.508,-1.4224 V 44.493501 q 0,-0.9144 0.508,-1.4224 0.508,-0.508 1.4224,-0.508 0.9144,0 1.4224,0.508 0.508,0.508 0.508,1.4224 V 68.4203 q 0,0.9144 -0.508,1.4224 -0.508,0.508 -1.4224,0.508 z"
         style="font-style:normal;font-variant:normal;font-weight:normal;font-stretch:normal;font-size:50.8px;font-family:Comfortaa;-inkscape-font-specification:Comfortaa;fill:#ffffff;fill-opacity:1;stroke-width:0.264583"
         id="path869" />
      <path
         d="m 54.752551,70.6047 q -4.1148,0 -7.3152,-1.778 -3.1496,-1.8288 -4.9784,-5.0292 -1.778,-3.200399 -1.778,-7.315199 0,-4.1656 1.6764,-7.3152 1.7272,-3.2004 4.7244,-5.0292 2.9972,-1.8288 6.9088,-1.8288 3.8608,0 6.7056,1.778 2.8956,1.7272 4.4704,4.826 1.5748,3.0988 1.5748,7.0612 0,0.8128 -0.508,1.3208 -0.508,0.4572 -1.3208,0.4572 h -21.59 v -3.2512 h 21.9964 l -2.1844,1.5748 q 0.0508,-2.9464 -1.0668,-5.2832 -1.1176,-2.3368 -3.2004,-3.6576 -2.032,-1.3208 -4.8768,-1.3208 -2.8956,0 -5.08,1.3716 -2.1844,1.3716 -3.4036,3.81 -1.1684,2.3876 -1.1684,5.4864 0,3.0988 1.3208,5.4864 1.3716,2.387599 3.7084,3.759199 2.3368,1.3716 5.3848,1.3716 1.8288,0 3.6576,-0.6096 1.8796,-0.6604 2.9972,-1.6256 0.5588,-0.4572 1.27,-0.4572 0.7112,-0.0508 1.2192,0.3556 0.6604,0.6096 0.6604,1.3208 0.0508,0.7112 -0.5588,1.2192 -1.6764,1.4224 -4.2672,2.3876 -2.5908,0.9144 -4.9784,0.9144 z"
         style="font-style:normal;font-variant:normal;font-weight:normal;font-stretch:normal;font-size:50.8px;font-family:Comfortaa;-inkscape-font-specification:Comfortaa;fill:#ffffff;fill-opacity:1;stroke-width:0.264583"
         id="path871" />
      <path
         d="m 85.435669,70.6555 q -3.6068,0 -6.4516,-1.4732 -2.844799,-1.524 -4.521199,-4.4196 -1.6256,-2.895599 -1.6256,-7.061199 v -13.208 q 0,-0.8128 0.5588,-1.3716 0.5588,-0.5588 1.3716,-0.5588 0.8636,0 1.4224,0.5588 0.5588,0.5588 0.5588,1.3716 v 13.208 q 0,3.1496 1.1684,5.181599 1.219199,2.032 3.251199,3.048 2.0828,1.016 4.6736,1.016 2.4892,0 4.4704,-0.9652 2.032,-0.9652 3.2004,-2.6416 1.1684,-1.676399 1.1684,-3.809999 h 2.794 q -0.1524,3.200399 -1.778,5.740399 -1.5748,2.4892 -4.2672,3.9624 -2.6924,1.4224 -5.9944,1.4224 z m 11.176,-0.3048 q -0.8636,0 -1.4224,-0.508 -0.508,-0.5588 -0.508,-1.4732 V 44.493501 q 0,-0.8636 0.508,-1.3716 0.5588,-0.5588 1.4224,-0.5588 0.8636,0 1.4224,0.5588 0.5588,0.508 0.5588,1.3716 V 68.3695 q 0,0.9144 -0.5588,1.4732 -0.5588,0.508 -1.4224,0.508 z"
         style="font-style:normal;font-variant:normal;font-weight:normal;font-stretch:normal;font-size:50.8px;font-family:Comfortaa;-inkscape-font-specification:Comfortaa;fill:#ffffff;fill-opacity:1;stroke-width:0.264583"
         id="path873" />
      <path
         d="m 109.36238,53.231101 q 0.1524,-3.1496 1.6256,-5.6388 1.524,-2.4892 3.9116,-3.9116 2.4384,-1.4224 5.3848,-1.4224 2.3368,0 3.6068,0.6604 1.27,0.6604 0.9652,1.9304 -0.2032,0.762 -0.7112,1.016 -0.4572,0.254 -1.1684,0.2032 -0.6604,-0.0508 -1.524,-0.1016 -2.8448,-0.254 -5.08,0.6096 -2.1844,0.8128 -3.5052,2.54 -1.27,1.7272 -1.27,4.1148 z m 0.3048,17.119599 q -0.9144,0 -1.4224,-0.508 -0.508,-0.508 -0.508,-1.4224 V 44.493501 q 0,-0.9144 0.508,-1.4224 0.508,-0.508 1.4224,-0.508 0.9144,0 1.4224,0.508 0.508,0.508 0.508,1.4224 V 68.4203 q 0,0.9144 -0.508,1.4224 -0.508,0.508 -1.4224,0.508 z"
         style="font-style:normal;font-variant:normal;font-weight:normal;font-stretch:normal;font-size:50.8px;font-family:Comfortaa;-inkscape-font-specification:Comfortaa;fill:#ffffff;fill-opacity:1;stroke-width:0.264583"
         id="path875" />
      <path
         d="m 145.07469,70.6047 q -3.9624,0 -7.1628,-1.8288 -3.1496,-1.8288 -5.0292,-4.9784 -1.8288,-3.200399 -1.8796,-7.162799 v -23.9776 q 0,-0.9144 0.508,-1.4224 0.5588,-0.5588 1.4732,-0.5588 0.8636,0 1.3716,0.5588 0.5588,0.508 0.5588,1.4224 v 14.9352 q 1.6764,-2.3876 4.4196,-3.81 2.794,-1.4732 6.1976,-1.4732 3.9116,0 7.0104,1.8796 3.0988,1.8288 4.8768,5.0292 1.8288,3.2004 1.8288,7.2136 0,4.064 -1.8796,7.264399 -1.8288,3.2004 -5.0292,5.08 -3.2004,1.8288 -7.2644,1.8288 z m 0,-3.556 q 2.9464,0 5.2832,-1.3716 2.3368,-1.4224 3.6576,-3.809999 1.3716,-2.3876 1.3716,-5.4356 0,-2.9972 -1.3716,-5.3848 -1.3208,-2.4384 -3.6576,-3.81 -2.3368,-1.3716 -5.2832,-1.3716 -2.8956,0 -5.2324,1.3716 -2.3368,1.3716 -3.6576,3.81 -1.3208,2.3876 -1.3208,5.3848 0,3.048 1.3208,5.4356 1.3208,2.387599 3.6576,3.809999 2.3368,1.3716 5.2324,1.3716 z"
         style="font-style:normal;font-variant:normal;font-weight:normal;font-stretch:normal;font-size:50.8px;font-family:Comfortaa;-inkscape-font-specification:Comfortaa;fill:#ffffff;fill-opacity:1;stroke-width:0.264583"
         id="path877" />
      <path
         d="m 176.16423,62.4259 q -0.8128,0 -1.3716,-0.558799 -0.5588,-0.5588 -0.5588,-1.4224 v -7.9756 h -7.9756 q -0.8128,0 -1.3716,-0.5588 -0.5588,-0.5588 -0.5588,-1.4224 0,-0.8128 0.5588,-1.3716 0.5588,-0.6096 1.3716,-0.6096 h 7.9756 v -7.9756 q 0,-0.8128 0.5588,-1.3716 0.5588,-0.5588 1.3716,-0.5588 0.8636,0 1.4224,0.5588 0.5588,0.5588 0.5588,1.3716 v 7.9756 h 7.9756 q 0.8128,0 1.3716,0.6096 0.6096,0.5588 0.6096,1.3716 0,0.8636 -0.6096,1.4224 -0.5588,0.5588 -1.3716,0.5588 h -7.9756 v 7.9756 q 0,0.8636 -0.5588,1.4224 -0.5588,0.558799 -1.4224,0.558799 z"
         style="font-style:normal;font-variant:normal;font-weight:normal;font-stretch:normal;font-size:50.8px;font-family:Comfortaa;-inkscape-font-specification:Comfortaa;fill:#ffffff;fill-opacity:1;stroke-width:0.264583"
         id="path879" />
    </g>
    <text
       xml:space="preserve"
       style="font-size:10.5833px;line-height:1.25;font-family:'DroidSansMono Nerd Font Mono';-inkscape-font-specification:'DroidSansMono Nerd Font Mono';stroke-width:0.264583"
       x="53.044308"
       y="116.39026"
       id="text843"><tspan
         id="tspan841"
         x="53.044308"
         y="116.39026"
         style="stroke-width:0.264583">+</tspan></text>
    <text
       xml:space="preserve"
       id="text847"
       style="font-size:10.5833px;line-height:1.25;font-family:'DroidSansMono Nerd Font Mono';-inkscape-font-specification:'DroidSansMono Nerd Font Mono';white-space:pre;shape-inside:url(#rect849);" />
    <text
       xml:space="preserve"
       id="text853"
       style="font-size:10.5833px;line-height:1.25;font-family:'DroidSansMono Nerd Font Mono';-inkscape-font-specification:'DroidSansMono Nerd Font Mono';white-space:pre;shape-inside:url(#rect855);" />
    <text
       xml:space="preserve"
       id="text863"
       style="font-size:10.5833px;line-height:1.25;font-family:'DroidSansMono Nerd Font Mono';-inkscape-font-specification:'DroidSansMono Nerd Font Mono';white-space:pre;shape-inside:url(#rect865);" />
  </g>
</svg>
